<svg width="102" height="30" viewBox="0 0 102 30" fill="none" xmlns="http://www.w3.org/2000/svg">
<path d="M9.00313 0.439998C10.2565 0.439998 11.3498 0.573331 12.2831 0.839998C13.2165 1.08 14.0165 1.38666 14.6831 1.76C15.3498 2.10666 15.8965 2.48 16.3231 2.88C16.7498 3.28 17.1098 3.61333 17.4031 3.88L14.8831 7.08C14.7498 6.6 14.5898 6.01333 14.4031 5.32C14.2165 4.6 13.9098 3.90667 13.4831 3.24C13.0565 2.54667 12.4831 1.96 11.7631 1.48C11.0698 0.999999 10.1631 0.759999 9.04313 0.759999C7.78979 0.786665 6.69646 0.973332 5.76313 1.32C4.85646 1.66667 4.12313 2.10667 3.56313 2.64C3.00313 3.14666 2.61646 3.73333 2.40313 4.4C2.21646 5.04 2.21646 5.68 2.40313 6.32C2.77646 7.62667 3.70979 8.86667 5.20313 10.04C6.69646 11.1867 8.50979 12.3067 10.6431 13.4C12.1098 14.1467 13.2965 14.9067 14.2031 15.68C15.1365 16.4533 15.8565 17.24 16.3631 18.04C16.8965 18.8133 17.2565 19.6133 17.4431 20.44C17.6298 21.24 17.7098 22.04 17.6831 22.84C17.6298 23.6667 17.4165 24.48 17.0431 25.28C16.6698 26.0533 16.1498 26.76 15.4831 27.4C14.8165 28.0133 14.0165 28.52 13.0831 28.92C12.1498 29.32 11.1231 29.5333 10.0031 29.56C9.36313 29.56 8.60313 29.44 7.72313 29.2C6.84313 28.96 5.93646 28.6667 5.00313 28.32C4.09646 27.9733 3.21646 27.6133 2.36313 27.24C1.50979 26.8667 0.789792 26.56 0.203125 26.32L1.24313 20.64C1.50979 21.6 1.92313 22.5867 2.48313 23.6C3.04313 24.6133 3.69646 25.5467 4.44313 26.4C5.21646 27.2267 6.06979 27.9067 7.00313 28.44C7.93646 28.9733 8.92313 29.24 9.96313 29.24C11.0031 29.2133 11.9231 29.0267 12.7231 28.68C13.5231 28.3333 14.1765 27.8933 14.6831 27.36C15.1898 26.8267 15.5365 26.24 15.7231 25.6C15.9098 24.9333 15.9098 24.28 15.7231 23.64C15.5365 23 15.2698 22.3733 14.9231 21.76C14.6031 21.1467 14.1765 20.56 13.6431 20C13.1098 19.4133 12.4431 18.84 11.6431 18.28C10.8698 17.72 9.94979 17.16 8.88313 16.6L8.80313 16.56C5.89646 15.04 3.76313 13.5067 2.40313 11.96C1.04313 10.3867 0.403125 8.78667 0.483125 7.16C0.509792 6.33333 0.696458 5.53333 1.04313 4.76C1.41646 3.96 1.94979 3.25333 2.64313 2.64C3.33646 2 4.20313 1.48 5.24313 1.08C6.30979 0.679998 7.56313 0.466664 9.00313 0.439998ZM30.2944 1.24C32.1877 0.733332 34.0677 0.626665 35.9344 0.919999C37.801 1.18667 39.521 1.77333 41.0944 2.68C42.6677 3.58667 44.0277 4.77333 45.1744 6.24C46.3477 7.70667 47.1877 9.38667 47.6944 11.28C48.201 13.1733 48.321 15.0533 48.0544 16.92C47.7877 18.7867 47.1877 20.5067 46.2544 22.08C45.3477 23.6533 44.161 25.0267 42.6944 26.2C41.2277 27.3467 39.5477 28.1733 37.6544 28.68C35.761 29.1867 33.881 29.3067 32.0144 29.04C30.1744 28.7733 28.4677 28.1867 26.8944 27.28C25.321 26.3467 23.9477 25.1467 22.7744 23.68C21.601 22.2133 20.761 20.5333 20.2544 18.64C19.7477 16.7467 19.6277 14.88 19.8944 13.04C20.161 11.1733 20.7477 9.45333 21.6544 7.88C22.5877 6.30667 23.7877 4.93333 25.2544 3.76C26.721 2.58667 28.401 1.74667 30.2944 1.24ZM30.3744 1.56C28.6944 2.01333 27.3344 2.84 26.2944 4.04C25.2544 5.21333 24.481 6.57333 23.9744 8.12C23.4677 9.64 23.201 11.2533 23.1744 12.96C23.1744 14.64 23.3744 16.2133 23.7744 17.68C24.1744 19.1467 24.801 20.6133 25.6544 22.08C26.5077 23.5467 27.5344 24.8267 28.7344 25.92C29.961 26.9867 31.321 27.7733 32.8144 28.28C34.3077 28.7867 35.8944 28.8133 37.5744 28.36C39.2544 27.9067 40.6144 27.0933 41.6544 25.92C42.6944 24.72 43.4677 23.36 43.9744 21.84C44.481 20.2933 44.7344 18.68 44.7344 17C44.761 15.2933 44.5744 13.7067 44.1744 12.24C43.7744 10.7733 43.1477 9.30667 42.2944 7.84C41.441 6.37333 40.4144 5.10667 39.2144 4.04C38.0144 2.94667 36.6544 2.14667 35.1344 1.64C33.641 1.13333 32.0544 1.10667 30.3744 1.56ZM65.1788 28.68C65.9254 28.5467 66.5788 28.3733 67.1388 28.16C67.6988 27.92 68.2188 27.64 68.6988 27.32C69.2054 27 69.6988 26.64 70.1788 26.24C70.6588 25.84 71.2054 25.4 71.8188 24.92L71.0988 28.96V29H46.2188V28.68C47.0988 28.68 47.9254 28.4667 48.6988 28.04C49.4988 27.5867 50.1788 26.8933 50.7388 25.96L63.8188 4.88C64.0854 4.45333 64.3121 4.02667 64.4988 3.6C64.6854 3.17333 64.7921 2.78667 64.8188 2.44C64.8454 2.09333 64.7654 1.81333 64.5788 1.6C64.4188 1.36 64.1121 1.24 63.6588 1.24H56.8988C56.1521 1.37333 55.4988 1.56 54.9388 1.8C54.3788 2.01333 53.8454 2.28 53.3388 2.6C52.8321 2.89333 52.3254 3.24 51.8188 3.64C51.3388 4.04 50.8054 4.48 50.2188 4.96L50.9388 0.959999V0.919999H72.9388V1.24C72.0588 1.24 71.2188 1.46667 70.4188 1.92C69.6454 2.34667 68.9788 3.02667 68.4188 3.96L55.3388 25.04C55.0721 25.4667 54.8454 25.8933 54.6588 26.32C54.4988 26.7467 54.4054 27.1333 54.3788 27.48C54.3521 27.8267 54.4188 28.12 54.5788 28.36C54.7388 28.5733 55.0454 28.68 55.4987 28.68H65.1788ZM76.8897 15.56C78.9164 15.56 80.7964 15.68 82.5297 15.92L88.2897 0.919999H88.6497L97.0497 22.48C97.3164 23.2 97.6097 23.9333 97.9297 24.68C98.2764 25.4 98.6497 26.0667 99.0497 26.68C99.4497 27.2667 99.8764 27.7467 100.33 28.12C100.783 28.4933 101.276 28.68 101.81 28.68V29H92.5297V28.68C93.6497 28.68 94.303 28.2533 94.4897 27.4C94.703 26.52 94.543 25.4 94.0097 24.04C93.4497 22.6533 92.863 21.56 92.2497 20.76C91.6364 19.96 90.8764 19.3733 89.9697 19C89.0897 18.6 88.0097 18.36 86.7297 18.28C85.4497 18.1733 83.8764 18.12 82.0097 18.12L78.9697 26.04C78.7564 26.6267 78.703 27.0933 78.8097 27.44C78.943 27.76 79.1297 28.0133 79.3697 28.2C79.663 28.4133 80.0097 28.5733 80.4097 28.68V29H74.9297V28.68C75.143 28.68 75.423 28.6267 75.7697 28.52C76.1164 28.4133 76.4764 28.2533 76.8497 28.04C77.223 27.8 77.5697 27.5067 77.8897 27.16C78.2364 26.7867 78.5164 26.3467 78.7297 25.84L81.6897 18.12H79.4497L76.8897 15.56ZM86.8097 5.6L82.8497 15.96C85.2764 16.3333 87.303 16.9467 88.9297 17.8C90.5564 18.6267 91.8364 19.68 92.7697 20.96L86.8097 5.6Z" fill="white"/>
</svg>
